<svg xmlns="http://www.w3.org/2000/svg" xmlns:xlink="http://www.w3.org/1999/xlink" width="1920" zoomAndPan="magnify" viewBox="0 0 1440 809.999993" height="1080" preserveAspectRatio="xMidYMid meet" version="1.0"><defs><clipPath id="508efd7588"><path d="M 38.25 -237.480469 L 1401.75 -237.480469 C 1411.894531 -237.480469 1421.625 -233.449219 1428.796875 -226.277344 C 1435.96875 -219.105469 1440 -209.375 1440 -199.230469 L 1440 1001.425781 C 1440 1011.570312 1435.96875 1021.300781 1428.796875 1028.472656 C 1421.625 1035.644531 1411.894531 1039.675781 1401.75 1039.675781 L 38.25 1039.675781 C 28.105469 1039.675781 18.375 1035.644531 11.203125 1028.472656 C 4.03125 1021.300781 0 1011.570312 0 1001.425781 L 0 -199.230469 C 0 -209.375 4.03125 -219.105469 11.203125 -226.277344 C 18.375 -233.449219 28.105469 -237.480469 38.25 -237.480469 Z M 38.25 -237.480469 " clip-rule="nonzero"/></clipPath><clipPath id="a81be01495"><path d="M 0 0 L 1440 0 L 1440 810 L 0 810 Z M 0 0 " clip-rule="nonzero"/></clipPath><clipPath id="6c37709eb4"><path d="M 38.25 -237.480469 L 1401.75 -237.480469 C 1411.894531 -237.480469 1421.625 -233.449219 1428.796875 -226.277344 C 1435.96875 -219.105469 1440 -209.375 1440 -199.230469 L 1440 1001.425781 C 1440 1011.570312 1435.96875 1021.300781 1428.796875 1028.472656 C 1421.625 1035.644531 1411.894531 1039.675781 1401.75 1039.675781 L 38.25 1039.675781 C 28.105469 1039.675781 18.375 1035.644531 11.203125 1028.472656 C 4.03125 1021.300781 0 1011.570312 0 1001.425781 L 0 -199.230469 C 0 -209.375 4.03125 -219.105469 11.203125 -226.277344 C 18.375 -233.449219 28.105469 -237.480469 38.25 -237.480469 Z M 38.25 -237.480469 " clip-rule="nonzero"/></clipPath><clipPath id="a8650a169d"><rect x="0" width="1440" y="0" height="810"/></clipPath><clipPath id="3cf9da91cb"><path d="M 994.515625 327.175781 L 1157.765625 327.175781 L 1157.765625 490.421875 L 994.515625 490.421875 Z M 994.515625 327.175781 " clip-rule="nonzero"/></clipPath></defs><g clip-path="url(#508efd7588)"><g transform="matrix(1, 0, 0, 1, 0, 0.000000000000039746)"><g clip-path="url(#a8650a169d)"><g clip-path="url(#a81be01495)"><g clip-path="url(#6c37709eb4)"><rect x="-316.8" width="2073.6" fill="#141414" height="1166.39999" y="-178.199998" fill-opacity="1"/></g></g></g></g></g><path fill="#dcdcdc" d="M 316.328125 344.503906 C 316.328125 373.335938 330.355469 387.738281 358.476562 387.738281 C 394.15625 387.738281 431.699219 370.863281 471.105469 337.050781 C 494.042969 317.195312 509.867188 299.234375 518.542969 283.242188 C 527.285156 267.25 532.09375 256.375 532.910156 250.578125 C 533.992188 241.835938 535.28125 237.433594 536.839844 237.433594 C 539.449219 237.433594 540.769531 242.144531 540.769531 251.527344 C 540.769531 260.949219 538.363281 272.0625 533.585938 284.871094 C 528.875 297.710938 522.371094 309.941406 514.070312 321.597656 C 505.734375 333.1875 496.078125 343.925781 485.066406 353.855469 C 474.121094 363.816406 462.328125 372.492188 449.691406 379.878906 C 422.925781 395.160156 398.054688 402.78125 375.011719 402.78125 C 352.039062 402.78125 334.625 398.140625 322.699219 388.824219 C 310.839844 379.4375 304.941406 366.1875 304.941406 349.113281 C 304.941406 332.035156 309.855469 315.058594 319.714844 298.152344 C 329.644531 281.277344 343.875 265.148438 362.410156 249.765625 C 402.050781 216.695312 453.351562 192.671875 516.238281 177.664062 C 553.542969 169.191406 601.25 164.921875 659.359375 164.921875 C 678.402344 164.921875 701.136719 166.515625 727.53125 169.667969 C 778.558594 175.730469 813.257812 178.746094 831.621094 178.746094 C 850.054688 178.746094 866.894531 177.054688 882.175781 173.597656 C 897.523438 170.175781 911.179688 165.296875 923.105469 158.960938 C 946.042969 146.761719 963.902344 129.886719 976.640625 108.269531 C 979.519531 103.765625 982.265625 101.492188 984.910156 101.492188 C 987.617188 101.492188 988.972656 102.273438 988.972656 103.796875 C 988.972656 106.78125 987.753906 109.59375 985.316406 112.203125 C 942.757812 180.171875 874.789062 214.121094 781.472656 214.121094 C 759.042969 214.121094 730.515625 212.019531 695.816406 207.75 C 628.660156 199.550781 584.546875 195.417969 563.402344 195.417969 C 542.261719 195.417969 521.691406 197.519531 501.734375 201.652344 C 481.746094 205.71875 462.636719 211.34375 444.40625 218.457031 C 426.246094 225.609375 409.335938 234.011719 393.714844 243.667969 C 378.0625 253.359375 364.476562 263.691406 352.921875 274.703125 C 328.527344 298.285156 316.328125 321.566406 316.328125 344.503906 Z M 158.976562 652.703125 C 158.976562 658.496094 156.738281 663.375 152.199219 667.339844 C 147.691406 671.339844 141.964844 673.304688 134.984375 673.304688 C 127.9375 673.304688 122.210938 672.015625 117.773438 669.375 L 117.773438 671.273438 C 117.773438 684.011719 125.429688 694.582031 140.679688 702.984375 C 155.519531 711.21875 171.476562 715.320312 188.65625 715.320312 C 205.902344 715.320312 220.777344 714.167969 233.246094 711.796875 C 245.785156 709.355469 258.792969 704.984375 272.28125 698.648438 C 285.832031 692.347656 299.929688 683.570312 314.566406 672.355469 C 329.269531 661.074219 344.6875 646.570312 360.78125 628.851562 C 394.9375 591.816406 431.15625 541.09375 469.480469 476.648438 C 470.292969 475.019531 470.902344 473.9375 471.375 473.394531 C 382.09375 493.285156 317.75 521.066406 278.378906 556.746094 C 266.722656 567.046875 259.03125 575.519531 255.339844 582.089844 C 249.984375 591.035156 246.394531 595.507812 244.496094 595.507812 C 242.667969 595.507812 241.785156 594.898438 241.785156 593.613281 C 241.785156 590.460938 242.734375 587.785156 244.632812 585.613281 C 254.660156 561.59375 281.226562 537.433594 324.324219 513.105469 C 368.507812 488.539062 420.179688 470.007812 479.375 457.539062 C 480.1875 457.539062 480.863281 457.402344 481.40625 457.128906 C 524.945312 388.925781 575.941406 334.339844 634.421875 293.40625 C 683.011719 259.253906 723.601562 242.175781 756.128906 242.175781 C 762.160156 242.175781 765.210938 243.125 765.210938 245.023438 C 765.210938 246.851562 764.160156 247.96875 762.09375 248.410156 C 759.992188 248.785156 753.316406 250.648438 742.035156 253.96875 C 730.820312 257.21875 716.722656 264.269531 699.75 275.109375 C 682.839844 285.953125 665.527344 299.472656 647.839844 315.636719 C 611.957031 348.636719 577.226562 390.789062 543.617188 442.085938 C 580.820312 432.597656 608.703125 424.570312 627.238281 417.960938 C 632.828125 414.269531 637.335938 408.984375 640.792969 402.105469 C 651.363281 402.105469 663.425781 402.917969 676.980469 404.542969 C 690.601562 406.101562 698.597656 407.222656 700.96875 407.933594 C 670.339844 422.027344 642.316406 447.847656 616.9375 485.320312 C 608.804688 497.25 603.183594 507.074219 600.132812 514.730469 C 597.050781 522.320312 595.050781 526.523438 594.167969 527.335938 C 593.253906 528.148438 592.136719 528.554688 590.78125 528.554688 C 587.59375 528.554688 586.035156 526.726562 586.035156 523 C 586.035156 517.238281 590.644531 504.226562 599.859375 483.964844 C 609.144531 463.738281 617.109375 448.59375 623.714844 438.5625 C 613.144531 442.019531 599.523438 445.578125 582.917969 449.269531 L 532.09375 460.382812 C 506.953125 504.5 478.832031 545.464844 447.660156 583.3125 C 416.484375 621.089844 387.515625 649.992188 360.78125 670.050781 C 311.347656 707.390625 255.675781 726.027344 193.808594 726.027344 C 170.019531 726.027344 149.046875 720.335938 130.785156 708.949219 C 111.539062 697.023438 101.914062 683.4375 101.914062 668.15625 C 101.914062 651.722656 109.980469 641.285156 126.039062 636.847656 C 130.582031 635.761719 134.953125 635.21875 139.1875 635.21875 C 143.355469 635.21875 147.691406 636.675781 152.199219 639.558594 C 156.738281 642.472656 158.976562 646.84375 158.976562 652.703125 Z M 158.976562 652.703125 " fill-opacity="1" fill-rule="nonzero"/><g clip-path="url(#3cf9da91cb)"><path fill="#e9907a" d="M 1076.109375 327.175781 C 1068.144531 394.363281 1061.707031 400.800781 994.515625 408.765625 C 994.652344 408.765625 994.789062 408.800781 994.925781 408.800781 C 1061.742188 416.726562 1068.179688 423.300781 1076.109375 490.355469 C 1084.035156 423.164062 1090.507812 416.726562 1157.699219 408.765625 C 1090.507812 400.800781 1084.035156 394.363281 1076.109375 327.175781 Z M 1076.109375 327.175781 " fill-opacity="1" fill-rule="nonzero"/></g><path fill="#dcdcdc" d="M 668.324219 669.132812 C 699.90625 669.132812 722.808594 648.261719 737.855469 627.660156 L 735.144531 624.949219 C 721.589844 640.265625 705.460938 650.5625 682.828125 650.5625 C 644.609375 650.5625 619.535156 622.914062 619.535156 582.664062 C 619.535156 577.917969 619.804688 573.445312 620.484375 569.109375 L 735.414062 569.109375 C 734.601562 541.191406 713.050781 517.066406 676.050781 517.066406 C 634.847656 517.066406 598.660156 549.050781 598.660156 597.027344 C 598.660156 645.550781 636.070312 669.132812 668.324219 669.132812 Z M 621.296875 565.316406 C 626.039062 540.511719 641.355469 522.078125 666.292969 522.351562 C 693.128906 522.351562 708.984375 545.527344 711.96875 565.316406 Z M 621.296875 565.316406 " fill-opacity="1" fill-rule="nonzero"/><path fill="#dcdcdc" d="M 801.585938 669.132812 C 818.933594 669.132812 833.980469 656.390625 846.585938 642.027344 L 844.007812 639.449219 C 834.25 650.835938 823.949219 654.628906 815.683594 654.628906 C 803.078125 654.628906 794.8125 647.039062 794.8125 626.980469 L 794.8125 523.164062 L 838.046875 523.164062 L 839.535156 519.097656 L 794.8125 519.097656 L 794.8125 482.910156 L 790.746094 482.910156 L 753.066406 519.097656 L 753.066406 523.164062 L 771.90625 523.164062 L 771.90625 626.980469 C 771.90625 657.613281 783.019531 669.132812 801.585938 669.132812 Z M 801.585938 669.132812 " fill-opacity="1" fill-rule="nonzero"/><path fill="#dcdcdc" d="M 856.546875 666.152344 L 903.03125 666.152344 L 903.03125 662.355469 C 894.222656 659.644531 891.242188 652.867188 891.242188 628.742188 L 891.242188 518.828125 L 888.9375 516.792969 L 856.546875 530.890625 L 856.546875 534.140625 C 864.8125 537.667969 868.335938 540.511719 868.335938 561.113281 L 868.335938 628.742188 C 868.335938 652.867188 865.761719 659.644531 856.546875 662.355469 Z M 861.832031 482.640625 C 861.832031 491.449219 869.015625 498.769531 878.09375 498.769531 C 887.175781 498.769531 894.222656 491.449219 894.222656 482.640625 C 894.222656 473.152344 887.445312 466.105469 878.09375 466.105469 C 869.015625 466.105469 861.832031 473.152344 861.832031 482.640625 Z M 861.832031 482.640625 " fill-opacity="1" fill-rule="nonzero"/><path fill="#dcdcdc" d="M 921.363281 666.152344 L 967.714844 666.152344 L 967.714844 662.355469 C 958.636719 659.644531 956.058594 652.867188 956.058594 628.742188 L 956.058594 548.78125 C 970.96875 536.445312 986.828125 526.6875 1003.089844 526.6875 C 1028.976562 526.6875 1041.851562 543.492188 1041.851562 574.125 L 1041.851562 628.742188 C 1041.851562 652.867188 1039.277344 659.644531 1030.0625 662.355469 L 1030.0625 666.152344 L 1076.546875 666.152344 L 1076.546875 662.355469 C 1067.46875 659.644531 1064.894531 652.867188 1064.894531 628.742188 L 1064.894531 568.160156 C 1064.894531 533.871094 1047.136719 517.066406 1018.40625 517.066406 C 995.769531 517.066406 973.136719 530.210938 956.058594 544.035156 L 956.058594 430.59375 L 953.351562 428.5625 L 921.363281 442.65625 L 921.363281 445.910156 C 929.226562 449.433594 933.019531 452.28125 933.019531 472.882812 L 933.019531 628.742188 C 933.019531 652.867188 930.445312 659.644531 921.363281 662.355469 Z M 921.363281 666.152344 " fill-opacity="1" fill-rule="nonzero"/><path fill="#dcdcdc" d="M 599.757812 694.101562 C 599.890625 701.148438 600.027344 706.707031 600.027344 712.261719 C 600.027344 717.414062 599.890625 722.5625 599.757812 728.527344 L 603.007812 728.527344 C 602.738281 722.425781 602.601562 717.277344 602.601562 712.125 C 602.601562 706.570312 602.738281 701.011719 603.007812 694.101562 Z M 604.636719 710.5 C 604.769531 710.5 605.992188 710.363281 606.9375 710.636719 C 612.359375 711.71875 617.105469 718.089844 618.324219 728.796875 L 622.527344 728.390625 C 621.441406 724.324219 617.917969 711.992188 608.292969 710.230469 C 615.75 709.957031 620.222656 701.554688 620.222656 694.101562 L 616.832031 694.101562 C 617.78125 702.097656 613.988281 709.824219 606.667969 709.6875 C 606.125 709.6875 605.449219 709.6875 604.769531 709.550781 Z M 604.636719 710.5 " fill-opacity="1" fill-rule="nonzero"/><path fill="#dcdcdc" d="M 670.351562 694.101562 C 670.757812 697.488281 670.757812 703.859375 670.757812 709.824219 C 670.757812 711.992188 670.757812 714.160156 670.757812 716.058594 C 670.757812 723.375 666.964844 728.527344 661 728.527344 C 653.816406 728.527344 650.5625 722.96875 650.5625 715.785156 C 650.5625 708.46875 650.429688 701.417969 651.105469 694.101562 L 647.3125 694.101562 C 647.582031 696 647.582031 699.117188 647.582031 702.773438 C 647.582031 706.707031 647.582031 711.175781 647.582031 714.972656 C 647.582031 725.273438 653.140625 729.472656 659.917969 729.472656 C 666.828125 729.472656 671.84375 725.410156 671.84375 715.109375 C 671.84375 708.195312 671.84375 697.761719 672.113281 694.101562 Z M 670.351562 694.101562 " fill-opacity="1" fill-rule="nonzero"/><path fill="#dcdcdc" d="M 720.640625 693.828125 L 718.335938 694.101562 C 717.386719 696.8125 712.238281 706.164062 709.390625 710.769531 C 706.273438 705.484375 701.9375 697.488281 700.445312 693.695312 L 696.246094 694.101562 C 699.632812 698.980469 704.511719 707.789062 706.953125 713.074219 C 706.953125 713.886719 707.085938 714.835938 707.085938 715.785156 C 707.085938 719.582031 706.816406 724.59375 706.546875 728.527344 L 710.339844 728.527344 C 710.070312 724.460938 709.796875 719.582031 709.796875 715.785156 C 709.796875 714.566406 709.796875 713.347656 709.796875 712.398438 C 713.457031 705.351562 718.609375 696.132812 720.640625 693.828125 Z M 720.640625 693.828125 " fill-opacity="1" fill-rule="nonzero"/><path fill="#dcdcdc" d="M 767.613281 694.101562 C 768.019531 697.488281 768.019531 703.859375 768.019531 709.824219 C 768.019531 711.992188 768.019531 714.160156 768.019531 716.058594 C 768.019531 723.375 764.226562 728.527344 758.261719 728.527344 C 751.078125 728.527344 747.828125 722.96875 747.828125 715.785156 C 747.828125 708.46875 747.691406 701.417969 748.367188 694.101562 L 744.574219 694.101562 C 744.84375 696 744.84375 699.117188 744.84375 702.773438 C 744.84375 706.707031 744.84375 711.175781 744.84375 714.972656 C 744.84375 725.273438 750.402344 729.472656 757.179688 729.472656 C 764.089844 729.472656 769.105469 725.410156 769.105469 715.109375 C 769.105469 708.195312 769.105469 697.761719 769.375 694.101562 Z M 767.613281 694.101562 " fill-opacity="1" fill-rule="nonzero"/><path fill="#dcdcdc" d="M 821.5625 694.507812 C 819.257812 703.585938 815.058594 716.464844 812.480469 724.324219 C 809.230469 715.109375 804.890625 700.0625 803.535156 693.558594 L 800.011719 694.507812 C 798.386719 705.890625 794.863281 724.1875 793.371094 728.796875 L 795.539062 728.527344 C 796.355469 722.832031 798.929688 706.296875 800.960938 697.21875 C 802.859375 701.554688 808.6875 722.292969 810.042969 729.066406 L 813.023438 728.253906 C 814.652344 721.476562 819.257812 705.484375 822.375 697.21875 C 823.730469 701.691406 827.121094 722.425781 827.660156 729.066406 L 831.726562 728.527344 C 829.152344 720.121094 826.304688 701.285156 825.085938 693.558594 Z M 821.5625 694.507812 " fill-opacity="1" fill-rule="nonzero"/><path fill="#dcdcdc" d="M 882.019531 695.589844 C 879.578125 694.101562 876.191406 693.152344 872.257812 693.152344 C 867.109375 693.152344 854.910156 695.183594 854.910156 711.71875 C 854.910156 722.5625 862.367188 729.339844 871.988281 729.339844 C 876.460938 729.339844 879.441406 728.527344 881.203125 727.578125 L 880.527344 725.949219 C 879.171875 727.578125 876.730469 728.527344 872.800781 728.527344 C 865.347656 728.527344 858.707031 722.292969 858.707031 710.636719 C 858.707031 698.574219 864.535156 693.964844 872.257812 693.964844 C 876.324219 693.964844 878.765625 695.863281 880.527344 698.03125 Z M 882.019531 695.589844 " fill-opacity="1" fill-rule="nonzero"/><path fill="#dcdcdc" d="M 929.976562 694.101562 C 930.382812 697.488281 930.382812 703.859375 930.382812 709.824219 C 930.382812 711.992188 930.382812 714.160156 930.382812 716.058594 C 930.382812 723.375 926.585938 728.527344 920.625 728.527344 C 913.441406 728.527344 910.1875 722.96875 910.1875 715.785156 C 910.1875 708.46875 910.050781 701.417969 910.730469 694.101562 L 906.933594 694.101562 C 907.207031 696 907.207031 699.117188 907.207031 702.773438 C 907.207031 706.707031 907.207031 711.175781 907.207031 714.972656 C 907.207031 725.273438 912.761719 729.472656 919.539062 729.472656 C 926.453125 729.472656 931.464844 725.410156 931.464844 715.109375 C 931.464844 708.195312 931.464844 697.761719 931.738281 694.101562 Z M 929.976562 694.101562 " fill-opacity="1" fill-rule="nonzero"/><path fill="#dcdcdc" d="M 958.722656 728.527344 C 962.113281 728.527344 964.6875 728.527344 966.992188 728.527344 C 970.242188 728.527344 972.953125 728.527344 976.070312 728.660156 L 976.613281 726.492188 C 972.953125 727.441406 969.703125 727.710938 965.769531 727.710938 C 964.6875 727.710938 963.46875 727.710938 962.246094 727.710938 C 962.113281 724.1875 961.976562 718.632812 961.976562 712.804688 C 961.976562 706.027344 962.113281 698.980469 962.382812 694.101562 L 958.722656 694.101562 C 958.996094 698.980469 959.128906 706.296875 959.128906 713.074219 C 959.128906 719.851562 958.996094 726.085938 958.722656 728.527344 Z M 958.722656 728.527344 " fill-opacity="1" fill-rule="nonzero"/><path fill="#dcdcdc" d="M 1023.714844 694.101562 C 1024.121094 697.488281 1024.121094 703.859375 1024.121094 709.824219 C 1024.121094 711.992188 1024.121094 714.160156 1024.121094 716.058594 C 1024.121094 723.375 1020.328125 728.527344 1014.363281 728.527344 C 1007.179688 728.527344 1003.929688 722.96875 1003.929688 715.785156 C 1003.929688 708.46875 1003.792969 701.417969 1004.46875 694.101562 L 1000.675781 694.101562 C 1000.945312 696 1000.945312 699.117188 1000.945312 702.773438 C 1000.945312 706.707031 1000.945312 711.175781 1000.945312 714.972656 C 1000.945312 725.273438 1006.503906 729.472656 1013.28125 729.472656 C 1020.191406 729.472656 1025.207031 725.410156 1025.207031 715.109375 C 1025.207031 708.195312 1025.207031 697.761719 1025.476562 694.101562 Z M 1023.714844 694.101562 " fill-opacity="1" fill-rule="nonzero"/><path fill="#dcdcdc" d="M 1052.457031 694.101562 C 1052.589844 701.148438 1052.726562 706.707031 1052.726562 712.261719 C 1052.726562 717.414062 1052.589844 722.5625 1052.457031 728.527344 L 1055.707031 728.527344 C 1055.4375 722.425781 1055.300781 717.277344 1055.300781 712.125 C 1055.300781 706.570312 1055.4375 701.011719 1055.707031 694.101562 Z M 1057.335938 710.5 C 1057.46875 710.5 1058.691406 710.363281 1059.636719 710.636719 C 1065.058594 711.71875 1069.804688 718.089844 1071.023438 728.796875 L 1075.226562 728.390625 C 1074.140625 724.324219 1070.617188 711.992188 1060.992188 710.230469 C 1068.449219 709.957031 1072.921875 701.554688 1072.921875 694.101562 L 1069.53125 694.101562 C 1070.480469 702.097656 1066.6875 709.824219 1059.367188 709.6875 C 1058.824219 709.6875 1058.148438 709.6875 1057.46875 709.550781 Z M 1057.335938 710.5 " fill-opacity="1" fill-rule="nonzero"/></svg>